# xmcd
#
# Track frame offsets:
#	150
#	19985
#	43305
#	65240
#	83955
#	104495
#	124192
#	153730
#	179875
#	204592
#	230017
#	250357
#
# Disc length: 3643
#
# Revision: 1
# Processed by: cddbd v1.5.1PL0 Copyright (c) Steve Scherf et al.
# Submitted via: FreeRIP 2.53 
# Normalized: r0:TDELIM( - )
#
DISCID=be0e390c
DTITLE=A soul odyssey - The Finest in Smooth Soul R n B CD2
DYEAR=2001
DGENRE=Soul
TTITLE0=Nigel Martinez - Dreams Come True
TTITLE1=Holloway - Whispers
TTITLE2=Atlantic Starr - My Love Is Real
TTITLE3=Erica Berry - Paris In Spring
TTITLE4=Camelle Hinds - I've Never Known Love Like This Before
TTITLE5=Josie James - I Dont Wanna Lose It
TTITLE6=Noel Elmowy - Precious Love
TTITLE7=Angela Bofill - Love In Slow Motion
TTITLE8=Victor Haynes - Calling Up Old Memories
TTITLE9=Ronnie McNeir - Part Time Lover
TTITLE10=Nicole Jackson - Just In Case
TTITLE11=Bob Baldwin - For You
EXTD=
EXTT0=
EXTT1=
EXTT2=
EXTT3=
EXTT4=
EXTT5=
EXTT6=
EXTT7=
EXTT8=
EXTT9=
EXTT10=
EXTT11=
PLAYORDER=
